<svg xmlns="http://www.w3.org/2000/svg" width="100.182" height="30.574" viewBox="0 0 100.182 30.574"><defs><style>.a{fill:#ee4036;}</style></defs><g transform="translate(-29.509 -889)"><path class="a" d="M36.949,913.765a1.111,1.111,0,0,1-.51-.2l-5.809-5.6a3.374,3.374,0,0,1-.611-.612,2.168,2.168,0,0,1-.357-.509,1.412,1.412,0,0,1-.153-.663v-.815a1.408,1.408,0,0,1,.153-.662c.153-.2.255-.408.357-.51l.611-.611,5.759-5.758a.856.856,0,0,1,.509-.153.657.657,0,0,1,.51.2.9.9,0,0,1,.2.51v1.172c0,.1-.05.153-.05.2a.387.387,0,0,1-.1.2.632.632,0,0,1-.1.153c0,.051-.051.1-.153.2l-.153.153a.61.61,0,0,0-.2.2c-.1.1-.2.153-.2.2l-4.484,4.637c-.1.1-.2.2-.2.306a.369.369,0,0,0,.2.306l4.484,4.433a.7.7,0,0,0,.2.153c.1.1.153.152.2.152l.153.153.153.153c.051.051.051.1.1.153s.051.153.1.2c0,.051.05.153.05.2V913a.652.652,0,0,1-.2.509A.54.54,0,0,1,36.949,913.765Z"/><path class="a" d="M42.554,919.574c-.1,0-.2-.153-.2-.408v-.152l4.689-29.4c.1-.407.2-.611.356-.611h2.752c.153,0,.2.153.2.408v.153l-4.688,29.4c-.1.407-.2.611-.357.611Z"/><path class="a" d="M54.784,916.16a.5.5,0,0,1-.408-.153c-.1-.1-.1-.306-.1-.611V893.229a1.29,1.29,0,0,1,.1-.611.5.5,0,0,1,.408-.153h2.9a.5.5,0,0,1,.407.153c.1.1.1.306.1.611v8.765a.382.382,0,0,0,.051.255c.051.1.1.1.153.1h5.962c.051,0,.1-.051.153-.1.051-.1.1-.153.1-.255v-8.765a.885.885,0,0,1,.153-.611.5.5,0,0,1,.407-.153h2.956a.4.4,0,0,1,.356.153c.1.1.1.306.1.611V915.4a1.29,1.29,0,0,1-.1.611.461.461,0,0,1-.356.153H65.179a.382.382,0,0,1-.255-.051l-.2-.2a1.279,1.279,0,0,1-.1-.509v-10.09c0-.255-.051-.356-.2-.356H58.4c-.153,0-.2.1-.2.356V915.4a.885.885,0,0,1-.153.611.5.5,0,0,1-.407.153Z"/><path class="a" d="M75.982,916.16a.4.4,0,0,1-.357-.153.885.885,0,0,1-.153-.611V895.522c0-.254-.051-.407-.2-.407H71.5q-.077,0-.153-.153a1.132,1.132,0,0,1-.051-.459v-1.325a1.037,1.037,0,0,1,.1-.56.5.5,0,0,1,.408-.153H83.065a.4.4,0,0,1,.357.153c.1.1.1.306.1.56V894.5a.946.946,0,0,1-.1.51.659.659,0,0,1-.408.1H79.6c-.153,0-.2.153-.2.407V915.4a1.05,1.05,0,0,1-.153.662.5.5,0,0,1-.407.153H75.982Z"/><path class="a" d="M86.428,916.16c-.306,0-.458-.255-.458-.815v-.1l.917-21.912c0-.611.2-.917.509-.917h3.16a.859.859,0,0,1,.509.153.871.871,0,0,1,.306.611l3.363,15.593a.178.178,0,0,0,.051.1h.1c.051,0,.051-.051.051-.1L98.3,893.28c.1-.509.357-.815.764-.815h3.211c.306,0,.458.357.458.917l.918,21.912v.1c0,.509-.153.815-.51.815h-2.191c-.306,0-.51-.306-.51-.866l-.611-17.02c0-.051,0-.1-.051-.1s-.051,0-.1.051L96.059,915.4c-.1.509-.357.815-.662.815H94.123c-.306,0-.561-.255-.663-.815l-3.516-17.02c0-.051-.051-.1-.1-.051v.1l-.662,16.867c0,.611-.153.866-.459.866Z"/><path class="a" d="M108.442,916.16a.4.4,0,0,1-.357-.153c-.1-.1-.1-.306-.1-.611V893.229a1.29,1.29,0,0,1,.1-.611.463.463,0,0,1,.357-.153H111.4a.4.4,0,0,1,.357.153c.1.1.1.306.1.611v19.976c0,.254.1.356.254.356h5.2a.594.594,0,0,1,.357.1c.1.1.1.255.1.51V915.5a1.363,1.363,0,0,1-.1.56.43.43,0,0,1-.357.1Z"/><path class="a" d="M122.353,913.765a.5.5,0,0,1-.459-.2.906.906,0,0,1-.2-.509v-1.121a.307.307,0,0,1,.051-.2c0-.051.051-.1.051-.153a.187.187,0,0,0,.051-.153c0-.051.051-.1.1-.153s.1-.1.1-.153.051-.051.1-.153l.153-.152q.076,0,.153-.153.153-.076.153-.153l4.484-4.586a.441.441,0,0,0,.153-.306.369.369,0,0,0-.2-.306l-4.433-4.433a1.4,1.4,0,0,0-.255-.2c-.1-.1-.2-.153-.2-.2l-.153-.153c-.1-.1-.153-.152-.153-.2s-.051-.1-.1-.2-.051-.153-.1-.255v-1.376a.7.7,0,0,1,.663-.713.82.82,0,0,1,.509.2l5.809,5.656.612.611a1.779,1.779,0,0,1,.306.459,1.569,1.569,0,0,1,.153.662v1.07c0,.051-.051.153-.051.2a.386.386,0,0,0-.051.2c0,.051-.051.1-.1.2a.63.63,0,0,1-.1.153.88.88,0,0,1-.153.2l-.153.152-.2.2c-.1.1-.2.153-.2.2l-5.758,5.758A.867.867,0,0,1,122.353,913.765Z"/></g></svg>